<?xml version="1.0" standalone="no"?>
<!DOCTYPE svg PUBLIC "-//W3C//DTD SVG 20010904//EN"
 "http://www.w3.org/TR/2001/REC-SVG-20010904/DTD/svg10.dtd">
<svg version="1.0" xmlns="http://www.w3.org/2000/svg"
 width="577.000000pt" height="577.000000pt" viewBox="0 0 577.000000 577.000000"
 preserveAspectRatio="xMidYMid meet">
<metadata>
Created by potrace 1.14, written by Peter Selinger 2001-2017
</metadata>
<g transform="translate(0.000000,577.000000) scale(0.100000,-0.100000)"
fill="#000000" stroke="none">
<path d="M4294 4510 c-32 -21 -65 -44 -71 -50 -7 -6 -13 -7 -13 -3 0 4 -4 3
-8 -3 -4 -6 -38 -31 -77 -55 -38 -23 -72 -46 -75 -49 -3 -4 -12 -9 -20 -13
-18 -8 -53 -30 -60 -37 -3 -3 -36 -25 -75 -50 -38 -25 -72 -47 -75 -50 -3 -3
-22 -14 -42 -25 -21 -11 -38 -22 -38 -25 0 -3 -17 -14 -37 -25 -21 -11 -40
-22 -43 -26 -3 -3 -21 -14 -40 -25 -19 -10 -44 -27 -55 -37 -11 -11 -29 -23
-40 -28 -20 -9 -49 -27 -69 -42 -6 -4 -83 -55 -171 -112 -88 -57 -165 -108
-172 -114 -7 -6 -15 -11 -18 -11 -9 0 -90 -54 -93 -62 -2 -5 -9 -8 -16 -8 -7
0 -26 -11 -42 -25 -16 -14 -32 -25 -35 -25 -7 0 -130 -79 -139 -90 -3 -3 -21
-14 -40 -24 -19 -11 -40 -25 -47 -30 -7 -6 -37 -27 -67 -46 -30 -19 -54 -37
-54 -40 2 -10 -15 -85 -22 -100 -5 -8 -10 -28 -13 -45 -6 -33 -45 -181 -55
-205 -7 -19 -7 -18 -16 -60 -4 -19 -14 -54 -22 -77 -7 -23 -15 -53 -18 -67 -3
-14 -7 -30 -11 -36 -17 -27 10 -27 50 0 24 16 46 30 50 30 3 0 18 11 33 25 15
14 32 25 39 25 6 0 25 11 41 25 17 14 32 25 36 25 3 0 25 13 48 29 24 16 86
57 138 90 52 33 102 65 110 71 21 14 174 113 193 125 9 6 66 42 127 82 97 64
137 78 113 41 -4 -7 -9 -24 -11 -38 -2 -13 -7 -30 -13 -36 -5 -6 -6 -13 -3
-17 3 -3 1 -14 -4 -24 -6 -10 -12 -31 -15 -48 -3 -16 -13 -55 -22 -85 -9 -30
-21 -77 -27 -105 -5 -27 -14 -56 -20 -62 -6 -7 -8 -13 -5 -13 3 0 1 -15 -4
-32 -13 -42 -38 -135 -44 -168 -3 -14 -8 -32 -11 -40 -5 -12 -30 -105 -49
-180 -2 -8 -15 -55 -29 -105 -13 -49 -38 -144 -56 -210 -17 -66 -40 -151 -51
-190 -11 -38 -21 -77 -23 -85 -2 -8 -16 -60 -31 -115 -14 -55 -29 -111 -31
-125 -3 -14 -9 -34 -14 -45 -5 -11 -11 -31 -13 -45 -7 -36 -48 -192 -55 -210
-3 -8 -7 -22 -8 -30 -2 -8 -8 -33 -14 -55 -7 -22 -14 -52 -17 -67 -3 -16 -9
-28 -13 -28 -4 0 -7 -6 -7 -12 3 -30 -16 -108 -26 -108 -6 0 -8 -3 -4 -6 3 -3
0 -26 -8 -50 -8 -29 -10 -46 -3 -50 16 -10 638 -8 648 2 4 5 23 63 40 129 17
66 40 152 51 190 11 39 22 78 24 88 2 10 7 27 10 37 3 10 8 29 10 42 8 39 36
132 47 152 7 13 6 16 -2 11 -8 -5 -9 -2 -1 11 9 17 42 134 57 203 3 14 7 28
10 33 5 8 12 35 21 83 2 17 9 35 14 41 5 6 6 14 2 17 -3 4 0 13 7 22 7 8 10
15 7 15 -3 0 3 30 15 68 11 37 21 76 22 87 1 11 5 25 8 31 4 6 9 21 12 35 3
13 10 42 16 64 6 22 12 47 14 55 16 60 68 251 76 276 6 17 10 39 10 51 0 11 3
23 7 27 4 3 8 12 9 19 1 7 18 73 39 147 20 74 38 142 40 150 27 116 69 269 77
284 5 11 12 29 13 40 4 26 10 53 23 100 6 20 8 36 5 36 -3 0 -1 6 4 13 6 6 18
46 27 87 10 41 20 82 23 90 4 8 7 17 7 20 8 35 60 229 64 240 3 8 7 20 8 25 1
6 3 12 4 15 1 3 3 12 5 20 1 8 10 39 18 68 9 28 14 52 11 52 -3 0 0 8 5 18 6
11 12 30 15 43 2 13 19 76 36 139 18 63 35 126 38 140 2 14 9 30 14 37 22 27
-13 19 -68 -17z"/>
<path d="M3075 3019 c-22 -16 -64 -43 -93 -60 -28 -17 -58 -36 -65 -42 -19
-18 -50 -37 -69 -43 -10 -4 -18 -10 -18 -14 0 -5 -9 -12 -20 -15 -11 -3 -26
-12 -32 -19 -7 -6 -38 -27 -68 -45 -30 -19 -58 -39 -62 -45 -5 -6 -8 -7 -8 -1
0 6 -5 3 -10 -5 -5 -8 -13 -15 -17 -15 -4 0 -73 -43 -153 -96 -80 -52 -160
-104 -177 -114 -18 -11 -33 -23 -33 -27 0 -4 -7 -8 -15 -8 -8 0 -15 -5 -15
-11 0 -5 -4 -7 -10 -4 -5 3 -10 1 -10 -4 0 -6 -5 -11 -10 -11 -6 0 -16 -5 -23
-11 -7 -5 -102 -68 -212 -139 -110 -71 -209 -136 -220 -145 -10 -8 -25 -15
-31 -15 -7 0 -14 -3 -16 -7 -5 -11 -97 -73 -108 -73 -6 0 -10 -4 -10 -9 0 -5
-8 -12 -19 -16 -30 -9 -60 -40 -65 -66 -3 -13 -5 -25 -7 -26 -2 -4 -3 -7 -13
-58 -4 -22 -6 -40 -4 -41 1 0 -2 -7 -9 -15 -6 -8 -14 -26 -16 -39 -16 -86 -20
-101 -28 -106 -5 -3 -7 -10 -3 -15 3 -5 2 -15 -3 -22 -5 -7 -10 -25 -12 -42
-2 -16 -7 -33 -13 -36 -5 -3 -9 -10 -8 -15 1 -7 -9 -66 -15 -84 -1 -3 -5 -18
-9 -35 -4 -16 -10 -37 -13 -45 -7 -17 -9 -24 -17 -60 -10 -48 -28 -115 -33
-130 -3 -8 -7 -19 -8 -25 -2 -5 -10 -39 -20 -75 -9 -36 -18 -69 -19 -75 -1 -5
-5 -15 -9 -22 -4 -6 -2 -15 4 -19 7 -4 311 -8 676 -8 581 -1 664 1 667 14 3 8
15 49 27 90 12 41 24 89 26 105 3 17 9 32 14 33 5 2 7 7 5 11 -3 4 2 32 10 62
8 30 17 62 19 71 2 10 16 62 30 115 15 54 28 105 30 113 2 8 11 42 20 75 9 33
18 67 20 75 1 8 6 23 10 33 4 10 9 28 10 40 1 12 3 22 5 22 1 0 4 13 6 30 3
16 10 35 16 42 6 7 8 13 5 13 -3 0 -1 15 4 33 6 17 12 39 14 47 1 8 8 35 15
60 7 25 14 52 15 60 2 8 4 15 5 15 2 0 5 13 13 55 3 14 10 37 15 51 6 14 13
42 16 61 3 20 12 56 20 80 16 47 29 106 25 110 -1 2 3 12 9 24 6 11 13 32 15
45 3 13 11 44 18 69 7 25 14 50 14 55 1 6 4 20 9 32 4 12 9 30 11 40 3 10 9
38 16 63 6 25 12 50 13 57 1 7 5 16 9 19 4 4 7 19 7 34 0 15 3 30 7 34 4 3 8
12 9 19 1 7 6 27 9 45 4 17 6 32 4 31 -2 0 -22 -14 -44 -30z"/>
</g>
</svg>
